<?xml version="1.0" encoding="UTF-8" standalone="no"?>
<svg xmlns="http://www.w3.org/2000/svg" viewBox="0 0 128 128" width="128" height="128">
  <!-- Background with gradient -->
  <defs>
    <linearGradient id="bg-gradient" x1="0%" y1="0%" x2="100%" y2="100%">
      <stop offset="0%" style="stop-color:#ffffff;stop-opacity:1" />
      <stop offset="100%" style="stop-color:#f8f8f8;stop-opacity:1" />
    </linearGradient>
  </defs>
  
  <!-- Background circle with subtle shadow -->
  <circle cx="64" cy="64" r="62" fill="url(#bg-gradient)" stroke="#e1e1e1" stroke-width="1" />
  
  <!-- Google Maps pin -->
  <g transform="translate(32, 20) scale(0.7)">
    <path d="M48.5,5.6c-16.7,0-30.3,12.9-30.3,28.6c0,7,2.7,13.4,7.1,18.3L48.5,88l23.1-35.5c4.5-4.9,7.1-11.3,7.1-18.3 C78.8,18.5,65.2,5.6,48.5,5.6z" fill="#EA4335"/>
    <circle cx="48.5" cy="34.2" r="11" fill="#FFFFFF"/>
  </g>
  
  <!-- what3words branded elements -->
  <g transform="translate(45, 80)">
    <!-- Three slashes in red -->
    <g transform="scale(0.7)">
      <rect x="0" y="0" width="3" height="20" fill="#E11F26" transform="rotate(-30)" rx="1"/>
      <rect x="9" y="0" width="3" height="20" fill="#E11F26" transform="rotate(-30)" rx="1"/>
      <rect x="18" y="0" width="3" height="20" fill="#E11F26" transform="rotate(-30)" rx="1"/>
    </g>
    
    <!-- Stylized "w3w" text -->
    <g transform="translate(22, 0)">
      <path d="M0,0 L3,0 L4.5,5 L6,0 L9,0 L10.5,5 L12,0 L15,0 L12,12 L9,12 L7.5,7 L6,12 L3,12 L0,0z" fill="#0A3049"/>
      <path d="M16,0 L19,0 L19,12 L16,12z M21,0 L24,0 L24,12 L21,12z M26,0 L29,0 L29,12 L26,12z" fill="#0A3049"/>
      <path d="M30,0 L33,0 L34.5,5 L36,0 L39,0 L40.5,5 L42,0 L45,0 L42,12 L39,12 L37.5,7 L36,12 L33,12 L30,0z" fill="#0A3049"/>
    </g>
  </g>
  
  <!-- Integration overlay element -->
  <circle cx="64" cy="70" r="15" fill="#ffffff" fill-opacity="0.8"/>
</svg>