<?xml version="1.0" encoding="UTF-8" standalone="no"?>
<svg xmlns="http://www.w3.org/2000/svg" viewBox="0 0 240 60" width="240" height="60">
  <g fill="#0A3049">
    <path d="M9,18h4v24h-4V18z"/>
    <path d="M27,18h4v24h-4V18z"/>
    <path d="M45,18h4v24h-4V18z"/>
    <path d="M70,18 L77,30 L84,18 L89,18 L89,42 L85,42 L85,25 L77,39 L77,39 L69,25 L69,42 L65,42 L65,18 L70,18 Z"/>
    <path d="M115,18 L115,42 L111,42 L111,32 L100,32 L100,42 L96,42 L96,18 L100,18 L100,28 L111,28 L111,18 L115,18 Z"/>
    <path d="M140,18 L140,22 L128,22 L128,28 L138,28 L138,32 L128,32 L128,38 L141,38 L141,42 L124,42 L124,18 L140,18 Z"/>
    <path d="M168,18 L175,42 L171,42 L169,36 L159,36 L157,42 L153,42 L161,18 L168,18 Z M164,22 L161,32 L168,32 L164,22 Z"/>
    <path d="M182,23 C182,20 184,18 188,18 L196,18 L196,22 L189,22 C188,22 187,22 187,23 L187,24 C187,25 188,26 189,26 L193,26 C196,26 199,28 199,32 L199,33 C199,36 196,38 193,38 L184,38 L184,34 L192,34 C193,34 194,34 194,33 L194,32 C194,31 193,30 192,30 L188,30 C184,30 182,28 182,25 L182,23 Z"/>
  </g>
</svg>