<?xml version="1.0" encoding="UTF-8" standalone="no"?>
<svg xmlns="http://www.w3.org/2000/svg" viewBox="0 0 250 50" width="250" height="50">
  <g fill="#e11f26">
    <path d="M33.85,12h4.8v26h-4.8V12z M59.85,12h4.8v26h-4.8V12z M85.85,12h4.8v26h-4.8V12z"/>
    <path d="M117.85,38V12h4.12l9.29,15.42L140.55,12h4.12v26h-4.4V19.31l-8.09,13.47h-1.84l-8.1-13.47V38H117.85z"/>
    <path d="M162.49,38V12h4.4v22.11h12.13V38H162.49z"/>
    <path d="M187.56,38V12h14.67v3.89h-10.27v7.05h8.78v3.89h-8.78v7.28h10.27V38H187.56z"/>
    <path d="M209.25,38l7.51-26h4.75l7.51,26h-4.45l-1.56-5.73h-7.76L213.7,38H209.25z M216.4,28.47h5.47l-2.74-10.01L216.4,28.47z"/>
  </g>
</svg>